<svg width="96" height="24" viewBox="0 0 96 24" fill="none" xmlns="http://www.w3.org/2000/svg">
<g filter="url(#filter0_d_4633_10124)">
<path d="M18.6316 6.11933C18.5456 5.86733 18.3183 5.68933 18.053 5.66866L14.2523 5.36666L12.6076 1.72599C12.5003 1.48666 12.2623 1.33333 12.0003 1.33333C11.7383 1.33333 11.5003 1.48666 11.393 1.72533L9.74831 5.36666L5.94764 5.66866C5.68698 5.68933 5.46231 5.86066 5.37364 6.10666C5.28498 6.35266 5.34764 6.628 5.53498 6.81066L8.34364 9.54866L7.35031 13.85C7.28898 14.116 7.39631 14.3927 7.62098 14.548C7.73565 14.6267 7.86764 14.6667 8.00031 14.6667C8.12898 14.6667 8.25831 14.6293 8.37031 14.5547L12.0003 12.1347L15.6303 14.5547C15.8623 14.7093 16.167 14.7033 16.3936 14.5387C16.619 14.374 16.7183 14.0853 16.6416 13.8173L15.4223 9.55066L18.4463 6.82933C18.6443 6.65066 18.717 6.37199 18.6316 6.11933Z" fill="#FFBA08"/>
<path d="M36.6316 6.11933C36.5456 5.86733 36.3183 5.68933 36.053 5.66866L32.2523 5.36666L30.6076 1.72599C30.5003 1.48666 30.2623 1.33333 30.0003 1.33333C29.7383 1.33333 29.5003 1.48666 29.393 1.72533L27.7483 5.36666L23.9476 5.66866C23.687 5.68933 23.4623 5.86066 23.3736 6.10666C23.285 6.35266 23.3476 6.628 23.535 6.81066L26.3436 9.54866L25.3503 13.85C25.289 14.116 25.3963 14.3927 25.621 14.548C25.7356 14.6267 25.8676 14.6667 26.0003 14.6667C26.129 14.6667 26.2583 14.6293 26.3703 14.5547L30.0003 12.1347L33.6303 14.5547C33.8623 14.7093 34.167 14.7033 34.3936 14.5387C34.619 14.374 34.7183 14.0853 34.6416 13.8173L33.4223 9.55066L36.4463 6.82933C36.6443 6.65066 36.717 6.37199 36.6316 6.11933Z" fill="#FFBA08"/>
<path d="M54.6316 6.11933C54.5456 5.86733 54.3183 5.68933 54.053 5.66866L50.2523 5.36666L48.6076 1.72599C48.5003 1.48666 48.2623 1.33333 48.0003 1.33333C47.7383 1.33333 47.5003 1.48666 47.393 1.72533L45.7483 5.36666L41.9476 5.66866C41.687 5.68933 41.4623 5.86066 41.3736 6.10666C41.285 6.35266 41.3476 6.628 41.535 6.81066L44.3436 9.54866L43.3503 13.85C43.289 14.116 43.3963 14.3927 43.621 14.548C43.7356 14.6267 43.8676 14.6667 44.0003 14.6667C44.129 14.6667 44.2583 14.6293 44.3703 14.5547L48.0003 12.1347L51.6303 14.5547C51.8623 14.7093 52.167 14.7033 52.3936 14.5387C52.619 14.374 52.7183 14.0853 52.6416 13.8173L51.4223 9.55066L54.4463 6.82933C54.6443 6.65066 54.717 6.37199 54.6316 6.11933Z" fill="#FFBA08"/>
<path d="M72.6316 6.11933C72.5456 5.86733 72.3183 5.68933 72.053 5.66866L68.2523 5.36666L66.6076 1.72599C66.5003 1.48666 66.2623 1.33333 66.0003 1.33333C65.7383 1.33333 65.5003 1.48666 65.393 1.72533L63.7483 5.36666L59.9476 5.66866C59.687 5.68933 59.4623 5.86066 59.3736 6.10666C59.285 6.35266 59.3476 6.628 59.535 6.81066L62.3436 9.54866L61.3503 13.85C61.289 14.116 61.3963 14.3927 61.621 14.548C61.7356 14.6267 61.8676 14.6667 62.0003 14.6667C62.129 14.6667 62.2583 14.6293 62.3703 14.5547L66.0003 12.1347L69.6303 14.5547C69.8623 14.7093 70.167 14.7033 70.3936 14.5387C70.619 14.374 70.7183 14.0853 70.6416 13.8173L69.4223 9.55066L72.4463 6.82933C72.6443 6.65066 72.717 6.37199 72.6316 6.11933Z" fill="#FFBA08"/>
<path d="M80.3445 9.54866L79.3511 13.85C79.2898 14.116 79.3965 14.3927 79.6218 14.548C79.7358 14.6267 79.8678 14.6667 80.0005 14.6667C80.1291 14.6667 80.2585 14.6293 80.3705 14.5547L84.0005 12.1347L87.6305 14.5547C87.8625 14.7093 88.1671 14.7033 88.3938 14.5387C88.6191 14.374 88.7185 14.0853 88.6418 13.8173L87.4225 9.55066L90.4465 6.82933C90.6445 6.65066 90.7171 6.372 90.6318 6.12C90.5458 5.868 90.3185 5.69066 90.0531 5.66933L86.2525 5.36666L84.6078 1.72599C84.5005 1.48666 84.2625 1.33333 84.0005 1.33333C83.7385 1.33333 83.5005 1.48666 83.3931 1.72599L81.7485 5.36666L77.9478 5.66866C77.6865 5.68933 77.4618 5.86066 77.3738 6.10666C77.2845 6.35266 77.3485 6.628 77.5351 6.81066L80.3445 9.54866ZM82.2465 6.66466C82.4885 6.64533 82.7018 6.496 82.8011 6.274L84.0005 3.61999L85.1998 6.274C85.2991 6.496 85.5125 6.64533 85.7545 6.66466L88.4025 6.87466L86.2218 8.83733C86.0325 9.00799 85.9571 9.27066 86.0265 9.516L86.8618 12.4393L84.3711 10.7787C84.1471 10.6287 83.8558 10.6287 83.6318 10.7787L81.0291 12.514L81.7291 9.48333C81.7811 9.25666 81.7118 9.01866 81.5451 8.85666L79.5198 6.882L82.2465 6.66466Z" fill="#B4B7C9"/>
</g>
<defs>
<filter id="filter0_d_4633_10124" x="0" y="0" width="96" height="24" filterUnits="userSpaceOnUse" color-interpolation-filters="sRGB">
<feFlood flood-opacity="0" result="BackgroundImageFix"/>
<feColorMatrix in="SourceAlpha" type="matrix" values="0 0 0 0 0 0 0 0 0 0 0 0 0 0 0 0 0 0 127 0" result="hardAlpha"/>
<feOffset dy="4"/>
<feGaussianBlur stdDeviation="2"/>
<feComposite in2="hardAlpha" operator="out"/>
<feColorMatrix type="matrix" values="0 0 0 0 0 0 0 0 0 0 0 0 0 0 0 0 0 0 0.25 0"/>
<feBlend mode="normal" in2="BackgroundImageFix" result="effect1_dropShadow_4633_10124"/>
<feBlend mode="normal" in="SourceGraphic" in2="effect1_dropShadow_4633_10124" result="shape"/>
</filter>
</defs>
</svg>
